<?xml version="1.0" encoding="utf-8"?>
<!-- Generator: Adobe Illustrator 19.0.0, SVG Export Plug-In . SVG Version: 6.00 Build 0)  -->
<svg version="1.1" id="Capa_1" xmlns="http://www.w3.org/2000/svg" xmlns:xlink="http://www.w3.org/1999/xlink" x="0px" y="0px"
	 viewBox="0 0 500 500" style="enable-background:new 0 0 500 500;" xml:space="preserve">
<style type="text/css">
	.st0{fill:#E5322B;}
	.st1{fill:#FFFFFF;}
	.st2{fill:#47BABD;}
	.st3{fill:#1D1D1B;}
</style>
<g id="XMLID_5_">
	<g id="Capa_2">
		<g id="XMLID_4_">
			<path id="POI_1_" class="st0" d="M249.9,469.2c-2.8-7.4-5.2-13.7-7.6-20c-18.7-50-48.6-92.6-85.7-130.4
				c-21.2-21.5-39.8-44.6-51-73.1C70.8,156.4,125.4,54.4,218.9,34.1c71.6-15.5,146.4,24.7,173.6,94.9c26,67.2,10.2,126.5-38.3,177.8
				c-31.9,33.7-62.5,68.2-82.7,110.5c-6.9,14.5-12.5,29.5-18.7,44.3C251.9,463.8,251.1,466,249.9,469.2"/>
			<path id="back_x5F_white_x5F_c" class="st1" d="M361.6,186.8c0,60.1-48.7,108.9-108.9,108.9c-60.1,0-108.9-48.7-108.9-108.9
				S192.5,77.9,252.7,77.9S361.6,126.7,361.6,186.8"/>
			<path id="C" class="st2" d="M283.9,199.9l46.7,13.8c-3.1,12.7-8.1,23.4-14.8,32s-15.1,15-25.1,19.4c-10,4.3-22.7,6.5-38.1,6.5
				c-18.8,0-34-2.6-45.9-8c-11.9-5.3-22.1-14.6-30.8-28c-8.6-13.4-12.9-30.5-12.9-51.3c0-27.8,7.6-49.1,22.8-64.1
				c15.2-14.9,36.6-22.4,64.4-22.4c21.7,0,38.8,4.3,51.2,12.8c12.4,8.5,21.6,21.7,27.7,39.4l-47.1,10.1c-1.7-5.1-3.4-8.9-5.2-11.2
				c-3-4-6.6-7-10.9-9.2c-4.3-2.1-9.1-3.2-14.5-3.2c-12.1,0-21.3,4.7-27.7,14.2c-4.9,7-7.3,18.1-7.3,33.1c0,18.6,2.9,31.4,8.7,38.3
				c5.8,6.9,14,10.4,24.5,10.4c10.2,0,17.9-2.8,23.1-8.3C277.8,218.6,281.6,210.5,283.9,199.9"/>
			<polygon id="white_x5F_brujula" class="st1" points="225.9,186 272.8,186 250.5,273.7 			"/>
			<path id="circle_brujula" class="st3" d="M263.2,190.7c0,7.9-6.4,14.4-14.4,14.4s-14.4-6.4-14.4-14.4s6.4-14.4,14.4-14.4
				S263.2,182.8,263.2,190.7"/>
			<path id="brujula" class="st3" d="M249.6,289.6l28.3-101.3L249.6,86.9l-28.3,101.3L249.6,289.6z M269.6,188.2L249.6,266
				l-20.1-77.8H269.6z"/>
		</g>
	</g>
</g>
</svg>
