<?xml version="1.0" standalone="no"?>
<!DOCTYPE svg PUBLIC "-//W3C//DTD SVG 20010904//EN"
 "http://www.w3.org/TR/2001/REC-SVG-20010904/DTD/svg10.dtd">
<svg version="1.0" xmlns="http://www.w3.org/2000/svg"
 width="700.000000pt" height="700.000000pt" viewBox="0 0 700.000000 700.000000"
 preserveAspectRatio="xMidYMid meet">
<metadata>
Created by potrace 1.11, written by Peter Selinger 2001-2013
</metadata>
<g transform="translate(0.000000,700.000000) scale(0.100000,-0.100000)"
fill="#000000" stroke="none">
<path d="M3331 6559 c-662 -59 -1245 -410 -1626 -979 -86 -129 -206 -379 -258
-537 -199 -606 -134 -1236 182 -1788 129 -225 283 -421 570 -724 207 -219 335
-364 453 -516 354 -455 584 -875 808 -1477 29 -78 50 -110 50 -77 0 24 228
565 301 714 219 448 489 817 999 1370 117 127 249 275 295 330 455 553 628
1127 535 1780 -17 115 -82 362 -130 490 -116 313 -311 613 -535 822 -382 359
-844 560 -1362 593 -87 5 -165 9 -173 9 -8 -1 -57 -5 -109 -10z m474 -673
c600 -112 1070 -553 1214 -1141 31 -128 41 -214 41 -360 0 -151 -10 -233 -45
-375 -129 -517 -523 -929 -1036 -1084 -575 -173 -1200 7 -1591 459 -499 575
-499 1425 0 2000 240 277 572 457 942 511 116 16 362 12 475 -10z"/>
<path d="M3481 5733 c-6 -23 -20 -68 -30 -100 -10 -32 -53 -184 -96 -338 -42
-154 -118 -426 -167 -605 l-90 -325 76 -275 c194 -702 237 -855 277 -993 24
-82 45 -145 46 -140 14 43 173 610 314 1117 l80 289 -96 346 c-53 190 -118
429 -146 531 -59 217 -137 487 -148 515 -7 17 -10 14 -20 -22z m-198 -1413
c13 -108 82 -178 184 -187 110 -9 200 65 212 174 l6 58 43 3 c27 2 42 -1 42
-8 0 -16 -269 -1063 -275 -1068 -2 -2 -8 13 -14 34 -93 355 -261 1016 -261
1028 0 11 9 16 29 16 27 0 29 -3 34 -50z"/>
</g>
</svg>
