<?xml version="1.0" encoding="utf-8"?>
<!-- Generator: Adobe Illustrator 19.0.0, SVG Export Plug-In . SVG Version: 6.00 Build 0)  -->
<svg version="1.1" id="UP_x5F_LEFT_x5F_PANEL" xmlns="http://www.w3.org/2000/svg" xmlns:xlink="http://www.w3.org/1999/xlink"
	 x="0px" y="0px" viewBox="214 -92.1 1024 1024" style="enable-background:new 214 -92.1 1024 1024;" xml:space="preserve">
<style type="text/css">
	.st0{fill:#AFAFAF;}
	.st1{display:none;fill:#BBAAB1;}
	.st2{fill:#7B7B7C;}
	.st3{fill:#FFFFFF;}
	.st4{fill:#47BABD;}
	.st5{fill:#1D1D1B;}
</style>
<g>
	<path class="st0" d="M1033,911.6H418.2c-100.4,0-181.7-81.3-181.7-181.7V115c0-100.4,81.3-181.7,181.7-181.7H1033
		c100.4,0,181.7,81.3,181.7,181.7v614.9C1214.7,830.2,1133.4,911.6,1033,911.6z"/>
	<rect x="213.6" y="-92.1" class="st1" width="1024" height="1024"/>
</g>
<g>
	<path id="POI_1_" class="st2" d="M725.4,877.8c-5.7-15.1-10.6-28-15.5-41c-38.3-102.4-99.6-189.7-175.6-267.1
		c-43.4-44.1-81.6-91.3-104.4-149.8c-71.2-182.6,40.5-391.6,232-433.2c146.7-31.8,299.9,50.5,355.6,194.4
		c53.3,137.6,20.9,259-78.4,364.1c-65.3,69.1-128.1,139.7-169.4,226.4c-14.1,29.6-25.7,60.4-38.3,90.7
		C729.5,866.7,727.9,871.2,725.4,877.8"/>
	<path id="back_x5F_white_x5F_c" class="st3" d="M954.1,299.5c0,123.1-99.8,223-223,223c-123.1,0-223-99.8-223-223s99.8-223,223-223
		C854.3,76.5,954.1,176.3,954.1,299.5"/>
	<path id="C" class="st4" d="M795.1,326.2l95.6,28.2c-6.4,26.1-16.5,48-30.3,65.5c-13.8,17.5-30.9,30.7-51.4,39.7
		c-20.5,8.9-46.5,13.4-78.1,13.4c-38.4,0-69.7-5.4-94-16.3c-24.3-10.9-45.3-30-63-57.3c-17.7-27.4-26.5-62.4-26.5-105.1
		c0-56.9,15.5-100.6,46.6-131.2c31.1-30.6,75-45.8,131.8-45.8c44.5,0,79.4,8.8,104.9,26.3c25.4,17.5,44.3,44.4,56.7,80.7L791,245
		c-3.4-10.5-6.9-18.2-10.6-23c-6.1-8.1-13.6-14.4-22.4-18.8c-8.8-4.4-18.7-6.6-29.6-6.6c-24.7,0-43.7,9.7-56.8,29.1
		c-10,14.4-14.9,37-14.9,67.7c0,38.1,5.9,64.3,17.8,78.4c11.9,14.1,28.6,21.2,50.1,21.2c20.9,0,36.6-5.7,47.3-17.1
		C782.5,364.6,790.3,348,795.1,326.2"/>
	<polygon id="white_x5F_brujula" class="st3" points="676.3,297.8 772.2,297.8 726.6,477.5 	"/>
	<path id="circle_brujula" class="st5" d="M752.7,307.4c0,16.2-13.2,29.4-29.4,29.4s-29.4-13.2-29.4-29.4
		c0-16.2,13.2-29.4,29.4-29.4S752.7,291.2,752.7,307.4"/>
	<path id="brujula" class="st5" d="M724.7,509.9l58-207.5l-58-207.5l-58,207.5L724.7,509.9z M765.8,302.4l-41.1,159.3l-41.1-159.3
		L765.8,302.4z"/>
</g>
</svg>
